<svg width="42" height="40" viewBox="0 0 42 40" fill="none" xmlns="http://www.w3.org/2000/svg">
<g clip-path="url(#clip0_197_865)">
<path d="M15.4835 19.4366C15.4856 19.8367 15.49 20.6366 15.4691 21.0247C15.4482 21.4129 15.4019 21.3895 15.0721 21.3835C14.7423 21.3776 14.129 21.3893 12.8388 21.3952C11.5485 21.4011 9.58143 21.4011 7.92416 21.4119C6.26689 21.4227 4.91958 21.4444 4.03762 21.3963C3.15565 21.3484 2.7391 21.2306 2.27387 20.9922C1.80865 20.7538 1.29483 20.3948 0.938603 20.0379C0.582379 19.6811 0.383867 19.3264 0.23252 19.0082C0.0811726 18.69 -0.0229684 18.4084 -0.0808555 18.0386C-0.138743 17.6689 -0.150313 17.2112 -0.15628 15.9636C-0.162247 14.716 -0.162609 12.6786 -0.168571 10.4779C-0.174538 8.27718 -0.186102 5.91339 -0.151217 4.5847C-0.116332 3.25601 -0.0349684 2.96259 0.210207 2.50115C0.455381 2.03971 0.864334 1.41034 1.37913 0.956957C1.89394 0.503576 2.51444 0.2263 3.02165 0.106753C3.52887 -0.0127932 3.92265 0.0253588 5.73958 0.0385633C7.55651 0.0517514 10.7965 0.0402055 13.3075 0.0308479C15.8185 0.0216545 17.6004 0.0150851 19.2957 0.0092298C20.9909 0.0033745 22.5993 -0.00176967 24.298 0.000583393C25.9967 0.00277229 27.7855 0.0128979 29.3592 0.0304638C30.933 0.0480845 32.2915 0.0733646 33.5841 0.0684395C34.8767 0.0635145 36.1032 0.0282759 36.9942 0.0165653C37.8853 0.00479994 38.4407 0.0165535 38.9325 0.133966C39.4243 0.251373 39.8524 0.474369 40.2401 0.738476C40.6277 1.00258 40.9748 1.30773 41.2236 1.61291C41.4723 1.91809 41.6228 2.22325 41.75 2.49907C41.8773 2.77488 41.9815 3.02135 42.0418 3.34301C42.1022 3.66466 42.1188 4.0615 42.1362 4.53686C42.1536 5.01221 42.1717 5.56602 42.1749 6.37697C42.1781 7.18792 42.1666 8.25595 42.155 9.28294C42.1435 10.3099 42.1319 11.2958 42.1319 12.716C42.1319 14.1361 42.1434 15.9905 42.1203 17.0234C42.0972 18.0562 42.0393 18.2674 41.9306 18.5506C41.8219 18.8337 41.6625 19.1887 41.4683 19.5058C41.2741 19.8229 41.0452 20.102 40.6853 20.3763C40.3253 20.6506 39.8343 20.9202 39.4743 21.0818C39.1144 21.2433 38.8855 21.2969 38.5233 21.3319C38.1612 21.3669 37.6658 21.3835 36.7818 21.3965C35.8979 21.4095 34.6254 21.419 32.8658 21.4143C31.1062 21.4093 28.8596 21.3904 26.8075 21.3955C24.7553 21.4005 22.8977 21.43 21.9992 21.3999C21.1007 21.3697 21.1615 21.2798 21.1731 20.7737C21.1847 20.2676 21.1471 19.3452 21.1644 18.8698C21.1818 18.3943 21.2541 18.3661 21.9673 18.3637C22.6804 18.3615 24.0343 18.3848 25.2088 18.3907C26.3833 18.3965 27.3784 18.3848 29.1234 18.3956C30.8683 18.4065 33.363 18.4398 34.991 18.4576C36.619 18.4754 37.3801 18.4776 37.8511 18.4374C38.3221 18.3973 38.5028 18.3147 38.68 18.1502C38.8571 17.9858 39.0307 17.7393 39.1175 17.4049C39.2043 17.0704 39.2043 16.6479 39.1985 14.9284C39.1927 13.2089 39.1812 10.1926 39.1754 8.22083C39.1696 6.24902 39.1696 5.32183 39.1638 4.74086C39.1581 4.15988 39.1465 3.92515 39.0542 3.72781C38.9619 3.53048 38.7887 3.37057 38.5804 3.24143C38.3721 3.11228 38.1287 3.01399 37.4516 2.98242C36.7745 2.95084 35.6636 2.98625 34.3676 3.00365C33.0716 3.02127 31.5905 3.02127 29.8918 3.0187C28.1931 3.01596 26.277 3.01098 24.4144 3.01317C22.5517 3.01536 20.7426 3.02488 18.9293 3.02751C17.116 3.03024 15.2986 3.02587 13.3368 3.02805C11.3751 3.03079 9.26917 3.04015 7.69542 3.01673C6.12168 2.99325 5.08027 2.93677 4.41486 2.97891C3.74946 3.02105 3.46017 3.16192 3.24931 3.34736C3.03844 3.53281 2.9061 3.76277 2.84825 4.01517C2.79041 4.26757 2.80705 4.54228 2.81519 5.16672C2.82333 5.79116 2.82296 6.76528 2.81719 7.78641C2.8114 8.80754 2.8002 9.87557 2.79477 11.0284C2.78935 12.1812 2.7897 13.4186 2.79569 14.5303C2.80166 15.6421 2.81322 16.6279 2.88507 17.1922C2.95692 17.7565 3.08891 17.8992 3.27389 18.0433C3.45886 18.1874 3.69679 18.333 4.23938 18.3928C4.78196 18.4525 5.62918 18.4265 6.72271 18.4147C7.81624 18.403 9.15596 18.4056 10.3562 18.4043C11.5563 18.4032 12.6169 18.3978 13.3049 18.4015C13.9928 18.4053 14.3081 18.4177 14.5293 18.4263C14.7504 18.4349 14.8773 18.4397 14.9762 18.4419C15.0751 18.4441 15.146 18.4435 15.2114 18.4397C15.2769 18.4359 15.3369 18.4285 15.381 18.4414C15.4251 18.4544 15.4533 18.4879 15.4673 18.5903C15.4813 18.6928 15.4813 18.8646 15.4813 18.9504C15.4813 19.0361 15.4813 19.0366 15.4835 19.4366Z" fill="#2F374B"/>
<path d="M7.03853 3.95429C6.82612 3.95438 6.62609 3.9553 6.46475 3.95797C6.03453 3.96512 5.8794 3.98434 5.80176 3.99388C5.72412 4.00342 5.7241 4.00325 5.6395 4.04139C5.5549 4.07953 5.38578 4.15599 5.22353 4.29194C5.06127 4.42788 4.90592 4.62314 4.8307 4.81396C4.75548 5.00479 4.7602 5.19097 4.7649 5.70841C4.7696 6.22585 4.77445 7.07462 4.77438 7.70177C4.77431 8.32892 4.76023 9.49736 4.75458 10.2771C4.74893 11.0568 4.74132 14.1185 4.73897 15.1724C4.73662 16.2264 4.73689 16.417 4.79808 16.5863C4.85927 16.7557 4.98126 16.9035 5.10587 17.0275C5.23049 17.1515 5.35753 17.2516 5.58792 17.3159C5.81831 17.3803 6.15213 17.4088 6.62701 17.4231C7.10189 17.4374 7.71779 17.4375 8.30317 17.4327C8.88855 17.4279 9.44341 17.4185 9.93471 17.3207C10.426 17.223 10.854 17.0369 11.256 16.7532C11.6579 16.4694 12.0338 16.0879 12.2948 15.7923C12.5557 15.4966 12.7015 15.2867 12.8379 14.9434C12.9742 14.6 13.1012 14.1231 13.1694 13.6581C13.2376 13.1931 13.247 12.7401 13.1412 12.2894C13.0355 11.8388 12.8146 11.3907 12.5443 10.9996C12.274 10.6086 11.9542 10.2746 11.8013 10.0981C11.6484 9.92159 11.6624 9.90244 11.7235 9.80231C11.7846 9.70218 11.8927 9.52096 12.0126 9.24437C12.1325 8.96779 12.2644 8.596 12.3232 8.20259C12.382 7.80917 12.3679 7.39405 12.3279 7.10792C12.288 6.82179 12.222 6.66462 12.1069 6.41425C11.9917 6.16387 11.8271 5.82039 11.5897 5.50085C11.3523 5.18131 11.0421 4.88567 10.7318 4.65673C10.4215 4.42779 10.1111 4.26567 9.83601 4.16072C9.56095 4.05578 9.32103 4.00813 9.07182 3.98427C8.82261 3.96041 8.56401 3.96034 8.08207 3.95797C7.78086 3.95648 7.39254 3.95415 7.03853 3.95429ZM8.60232 6.48862C8.71105 6.48978 8.81321 6.49399 8.89785 6.50474C9.06714 6.52624 9.16602 6.57397 9.26475 6.64076C9.36349 6.70755 9.46218 6.79331 9.54913 6.90064C9.63609 7.00796 9.71124 7.13677 9.77468 7.31322C9.83813 7.48967 9.88986 7.71358 9.88983 7.89237C9.88979 8.07116 9.8382 8.20478 9.74652 8.3502C9.65485 8.49563 9.5231 8.65305 9.41029 8.75317C9.29748 8.8533 9.20345 8.89625 8.86495 8.92963C8.52646 8.96304 7.94351 8.98711 7.63321 8.9893C7.3229 8.99173 7.28536 8.97274 7.26882 8.7987C7.25227 8.62467 7.25697 8.29565 7.25934 8.13104C7.26171 7.96644 7.26171 7.96654 7.25934 7.88078C7.25701 7.79502 7.25228 7.6233 7.2546 7.47781C7.25694 7.33231 7.2664 7.21299 7.26408 7.05561C7.26173 6.89823 7.2475 6.70281 7.30868 6.60258C7.36987 6.50234 7.50632 6.49731 7.67559 6.49512C7.84486 6.49239 8.04706 6.4925 8.26804 6.49032C8.37853 6.48916 8.49359 6.48742 8.60232 6.48862ZM8.83568 11.4037C8.96968 11.4029 9.09794 11.406 9.20844 11.4167C9.42944 11.4382 9.57965 11.4905 9.76771 11.6003C9.95578 11.71 10.1814 11.8771 10.3507 12.0536C10.5199 12.23 10.633 12.4159 10.7011 12.6567C10.7693 12.8976 10.7927 13.1932 10.7692 13.4412C10.7456 13.6891 10.675 13.8894 10.5316 14.0944C10.3882 14.2995 10.1719 14.5094 9.9651 14.6501C9.75826 14.7908 9.5608 14.8621 9.2129 14.8908C8.865 14.9194 8.36669 14.9051 8.0305 14.9074C7.69431 14.9098 7.52029 14.9291 7.41686 14.9244C7.31343 14.9197 7.28061 14.8911 7.26408 14.7361C7.24754 14.5811 7.2475 14.2997 7.24986 13.892C7.25221 13.4842 7.25698 12.95 7.25934 12.5351C7.26169 12.1202 7.26156 11.8245 7.26156 11.6766C7.26156 11.5287 7.2615 11.5286 7.26853 11.5072C7.27557 11.4858 7.28975 11.4429 7.35802 11.4286C7.42629 11.4143 7.54853 11.4285 7.7319 11.4309C7.91526 11.4332 8.15978 11.4237 8.42778 11.4142C8.56179 11.4094 8.70168 11.4046 8.83568 11.4037Z" fill="#EBB700"/>
<path d="M7.03869 3.88184C6.8261 3.88192 6.62583 3.88285 6.4638 3.88551C6.03176 3.8927 5.87084 3.91246 5.79328 3.92199C5.71575 3.93152 5.69535 3.93698 5.61067 3.97516C5.52597 4.01334 5.34914 4.09299 5.17825 4.23617C5.00737 4.37934 4.84607 4.58011 4.76451 4.78704C4.68296 4.9939 4.689 5.19177 4.69369 5.70892C4.69839 6.22609 4.70324 7.07495 4.70317 7.70171C4.7031 8.32778 4.68902 9.49639 4.68338 10.2765C4.67772 11.0571 4.67012 14.1181 4.66776 15.1721C4.66541 16.2261 4.66421 16.4254 4.73133 16.6112C4.79845 16.7969 4.92789 16.9516 5.05613 17.0792C5.18434 17.2067 5.32694 17.3181 5.56913 17.3857C5.81131 17.4533 6.14824 17.4811 6.62495 17.4954C7.10165 17.5098 7.71811 17.5098 8.30389 17.5051C8.88966 17.5003 9.44812 17.4913 9.94854 17.3917C10.4489 17.2921 10.8874 17.1015 11.2968 16.8125C11.7063 16.5235 12.0849 16.1389 12.3482 15.8406C12.6115 15.5422 12.7649 15.3209 12.9041 14.9705C13.0433 14.62 13.171 14.1396 13.2401 13.6688C13.3091 13.198 13.3193 12.7349 13.2108 12.2727C13.1023 11.8104 12.8776 11.3552 12.603 10.958C12.3285 10.5608 12.0048 10.2232 11.855 10.0503C11.7801 9.96379 11.7542 9.91725 11.7521 9.90688C11.7511 9.9017 11.7507 9.90303 11.7546 9.89332C11.7585 9.88359 11.7691 9.86564 11.7845 9.84044C11.846 9.73955 11.9564 9.55405 12.078 9.27345C12.1996 8.99289 12.3337 8.61588 12.3939 8.21328C12.4541 7.81071 12.4396 7.3911 12.3986 7.09769C12.3577 6.80425 12.2873 6.63495 12.1717 6.38366C12.0561 6.13233 11.8894 5.78386 11.6467 5.45725C11.4041 5.13065 11.0897 4.83102 10.7741 4.59814C10.4584 4.36526 10.1424 4.20008 9.86128 4.09281C9.58008 3.98552 9.33247 3.9364 9.07868 3.9121C8.82489 3.8878 8.56434 3.8879 8.08252 3.88552C7.78138 3.88403 7.39303 3.88169 7.03869 3.88184ZM7.03869 4.02662C7.05004 4.02662 7.06074 4.02662 7.07215 4.02662C7.41651 4.02664 7.79035 4.02885 8.08197 4.0303C8.56402 4.03268 8.82068 4.03289 9.0653 4.05632C9.30992 4.07974 9.54217 4.12593 9.81109 4.22853C10.08 4.33115 10.3849 4.49022 10.6899 4.71521C10.9948 4.94021 11.3008 5.23186 11.533 5.54434C11.7651 5.85681 11.9276 6.1953 12.0423 6.44473C12.1571 6.69418 12.2187 6.83923 12.2576 7.11804C12.2965 7.39689 12.3103 7.80753 12.2528 8.19178C12.1954 8.57601 12.0657 8.94258 11.9475 9.21519C11.8294 9.48776 11.7235 9.66469 11.6629 9.76407C11.6477 9.78893 11.6336 9.81091 11.6225 9.83845C11.6114 9.86599 11.6055 9.90182 11.6124 9.93601C11.6263 10.0044 11.6699 10.0558 11.7479 10.1458C11.9039 10.3259 12.2198 10.6562 12.4859 11.0411C12.752 11.4261 12.9689 11.867 13.072 12.306C13.175 12.7451 13.1663 13.1881 13.099 13.6473C13.0317 14.1064 12.9055 14.5799 12.772 14.9162C12.6384 15.2524 12.5002 15.4509 12.2417 15.7439C11.9831 16.0368 11.6099 16.4153 11.2154 16.6938C10.8209 16.9722 10.4034 17.1537 9.92122 17.2497C9.43903 17.3457 8.88777 17.3555 8.30278 17.3603C7.71782 17.3651 7.10247 17.3649 6.62941 17.3507C6.15636 17.3364 5.82564 17.3071 5.60705 17.246C5.38846 17.185 5.27697 17.0961 5.15595 16.9757C5.03496 16.8553 4.92042 16.7143 4.86516 16.5614C4.8099 16.4085 4.80816 16.2266 4.81051 15.1726C4.81287 14.1187 4.82048 11.0564 4.82613 10.2776C4.83178 9.49823 4.84585 8.32996 4.84592 7.70172C4.84599 7.07418 4.84114 6.2255 4.83644 5.70779C4.83175 5.19007 4.82832 5.01555 4.89722 4.84077C4.96609 4.66604 5.11551 4.47631 5.26914 4.34759C5.42275 4.21889 5.58416 4.1456 5.66866 4.10751C5.75319 4.0694 5.73283 4.07521 5.81057 4.06565C5.8883 4.0561 6.03763 4.03742 6.46604 4.0303C6.62668 4.02765 6.82647 4.02671 7.03869 4.02662ZM8.53112 6.41532V6.41648C8.44328 6.4164 8.35394 6.41706 8.26737 6.41793C8.04696 6.42011 7.84476 6.41998 7.67464 6.42273C7.65712 6.42302 7.64263 6.42633 7.62557 6.4267C7.55986 6.42815 7.49484 6.42838 7.43654 6.4414C7.36301 6.45783 7.29088 6.49427 7.24807 6.56441C7.20524 6.63457 7.1955 6.71818 7.19147 6.80422C7.18745 6.89025 7.19176 6.97982 7.1929 7.05674C7.19517 7.21063 7.18581 7.32865 7.18342 7.47668C7.18107 7.62468 7.18584 7.79705 7.18816 7.88277C7.19053 7.96854 7.19053 7.96532 7.18816 8.12992C7.18579 8.29454 7.18043 8.62177 7.19793 8.80578C7.20229 8.85177 7.20759 8.89141 7.2233 8.92992C7.23901 8.96844 7.26968 9.0045 7.30833 9.02466C7.38564 9.06497 7.47736 9.06293 7.63397 9.0617C7.78396 9.06069 8.00931 9.04286 8.2267 9.03314C8.46343 9.02255 8.69329 9.0194 8.87213 9.00175C9.04368 8.98483 9.15653 8.96552 9.24544 8.93501C9.33436 8.9045 9.39762 8.86101 9.45761 8.80776C9.57759 8.70126 9.71115 8.5412 9.80695 8.38923C9.90277 8.23724 9.96137 8.08529 9.96141 7.89238C9.96144 7.69941 9.9079 7.47141 9.84208 7.28835C9.77625 7.10526 9.69648 6.96802 9.60454 6.85455C9.51261 6.74109 9.40848 6.65085 9.30455 6.58054C9.20057 6.5102 9.08578 6.45563 8.90698 6.43292C8.8176 6.42157 8.71344 6.41741 8.60336 6.41623L8.53112 6.41532ZM8.60165 6.56095C8.70903 6.56211 8.8092 6.56637 8.8891 6.57651C9.04886 6.5968 9.13184 6.63769 9.22533 6.70093C9.31887 6.76421 9.41212 6.84549 9.4941 6.94667C9.57607 7.04785 9.6466 7.16823 9.70766 7.33805C9.76872 7.50788 9.81865 7.7277 9.81862 7.89231C9.81859 8.05698 9.774 8.17227 9.68647 8.31112C9.59892 8.45 9.46897 8.60478 9.36334 8.69854C9.31052 8.74541 9.27061 8.77345 9.19968 8.79779C9.12875 8.82213 9.0251 8.841 8.85815 8.85746C8.67702 8.87534 8.43774 8.87909 8.19349 8.8897C7.98745 8.89865 7.77342 8.91585 7.63282 8.91685C7.47912 8.918 7.39671 8.90772 7.37353 8.89564C7.36194 8.8896 7.36081 8.88834 7.35513 8.87443C7.34945 8.86051 7.34398 8.8326 7.34008 8.79157C7.32448 8.62752 7.3285 8.29671 7.33087 8.13211C7.33324 7.96752 7.33324 7.9645 7.33087 7.87874C7.32854 7.79294 7.32386 7.62187 7.32613 7.47888C7.32843 7.33592 7.33799 7.21529 7.33561 7.05442C7.33446 6.97397 7.33037 6.88701 7.33394 6.81094C7.33751 6.73486 7.35127 6.67078 7.36962 6.6407C7.388 6.6106 7.41489 6.59442 7.4672 6.58273C7.51499 6.57206 7.5834 6.57015 7.65846 6.56887C7.66557 6.56875 7.6693 6.56757 7.67658 6.56742H7.67687C7.8452 6.5647 8.04733 6.5648 8.26877 6.56262H8.26905C8.37977 6.56146 8.49422 6.55977 8.60165 6.56095ZM8.88157 11.331L8.83529 11.3313C8.8095 11.3314 8.7833 11.3328 8.75722 11.3333C8.6464 11.3351 8.53398 11.3379 8.42545 11.3417C8.1573 11.3513 7.91302 11.3608 7.73291 11.3584C7.55279 11.3561 7.43774 11.3378 7.3437 11.3576C7.2967 11.3674 7.2596 11.3909 7.23664 11.4178C7.21368 11.4447 7.20451 11.4734 7.20095 11.4843C7.19741 11.495 7.1922 11.5167 7.19119 11.5414C7.19019 11.5661 7.19033 11.6026 7.19033 11.6765C7.19033 11.8245 7.19046 12.1201 7.18811 12.5348C7.18575 12.9495 7.18098 13.4834 7.17863 13.8913C7.17627 14.2993 7.17559 14.5796 7.19313 14.7439C7.20189 14.826 7.21307 14.8859 7.25418 14.934C7.2953 14.982 7.35608 14.9941 7.41394 14.9967C7.52966 15.002 7.69753 14.9821 8.0312 14.9798C8.3649 14.9774 8.86361 14.9921 9.2189 14.9628C9.57415 14.9336 9.7901 14.8565 10.0051 14.7103C10.2201 14.564 10.4404 14.3502 10.59 14.1362C10.7397 13.9222 10.8159 13.7062 10.8404 13.4482C10.8649 13.1902 10.8411 12.8883 10.7699 12.6366C10.6986 12.3849 10.5778 12.186 10.4021 12.0029C10.2265 11.8197 9.99737 11.6505 9.80354 11.5374C9.60974 11.4244 9.44417 11.3668 9.21527 11.3446C9.11505 11.3348 8.99972 11.3331 8.88238 11.333L8.88157 11.331ZM8.8364 11.4761C8.96902 11.4752 9.09532 11.4784 9.20191 11.4888C9.41502 11.5095 9.54986 11.5566 9.73219 11.663C9.9145 11.7693 10.1367 11.9341 10.2996 12.1038C10.4624 12.2737 10.5677 12.4469 10.6327 12.6768C10.6978 12.9067 10.7208 13.1961 10.6982 13.4341C10.6757 13.672 10.6106 13.8565 10.4735 14.0525C10.3364 14.2486 10.1241 14.4547 9.9254 14.5898C9.72674 14.7249 9.54775 14.7906 9.20721 14.8186C8.8667 14.8466 8.36879 14.8326 8.03011 14.835C7.6914 14.8374 7.51122 14.8561 7.42009 14.852C7.37452 14.8499 7.36738 14.8454 7.3621 14.8392C7.35682 14.8331 7.34311 14.801 7.33534 14.7281C7.31979 14.5824 7.31905 14.2997 7.3214 13.8922C7.32376 13.4846 7.32852 12.9505 7.33088 12.5354C7.33323 12.1203 7.33311 11.8244 7.33311 11.6766C7.33311 11.6026 7.33322 11.565 7.33396 11.5473C7.33468 11.5297 7.33297 11.5407 7.33648 11.5301C7.33996 11.5195 7.3416 11.516 7.34456 11.5125C7.34751 11.5091 7.35143 11.504 7.37271 11.4995C7.41521 11.4906 7.54465 11.5008 7.73126 11.5032C7.91787 11.5056 8.16263 11.4961 8.43049 11.4865C8.56443 11.4818 8.70376 11.477 8.8364 11.4761Z" fill="#EBB700"/>
<path d="M16.2085 14.6023C16.2837 14.5283 16.4342 14.3805 16.6364 14.2374C16.8386 14.0943 17.0925 13.956 17.3864 13.875C17.6803 13.7939 18.0141 13.7701 18.2045 13.7605C18.395 13.751 18.442 13.7556 18.4279 13.6938C18.4137 13.6319 18.3385 13.5032 18.2727 13.3506C18.2068 13.1979 18.1504 13.0215 18.1224 12.9118C18.0944 12.802 18.1033 11.9961 18.108 11.2259C18.1128 10.4557 18.1174 9.33981 18.1182 8.39792C18.1187 7.45603 18.1127 5.92521 18.0846 5.32432C18.0564 4.72343 18.0047 4.67098 17.9436 4.58514C17.8824 4.49932 17.8119 4.38009 17.7015 4.27275C17.591 4.16542 17.4405 4.07004 17.2995 4.01277C17.1584 3.9555 17.0268 3.93642 16.8786 3.95071C16.7305 3.96499 16.5659 4.01268 16.4249 4.07468C16.2838 4.13668 16.1662 4.21298 16.0581 4.31553C15.9499 4.41809 15.8512 4.54685 15.7877 4.64703C15.7242 4.7472 15.696 4.81873 15.6748 4.90461C15.6537 4.99047 15.6396 5.09062 15.6325 5.35292C15.6255 5.61524 15.6255 6.03967 15.6255 6.25182C15.6255 6.46396 15.6255 7.90435 15.6255 8.64593C15.6255 9.38752 15.6255 10.1505 15.6255 10.761C15.6255 11.3714 15.6255 11.8292 15.6325 12.2322C15.6396 12.6352 15.6537 12.9833 15.6843 13.248C15.7149 13.5127 15.7619 13.6939 15.8136 13.8704C15.8653 14.0468 15.9218 14.2185 15.9758 14.352C16.0299 14.4856 16.0817 14.581 16.1075 14.6286C16.1333 14.6762 16.1333 14.6761 16.2085 14.6023Z" fill="#EBB700"/>
<path d="M23.126 4.62553C23.1565 4.57546 23.2176 4.47533 23.3305 4.35846C23.4434 4.24159 23.6079 4.10806 23.7537 4.03414C23.8996 3.96023 24.0265 3.94593 24.224 3.98172C24.4215 4.01751 24.6895 4.10336 24.894 4.22263C25.0985 4.34191 25.2396 4.49451 25.3218 4.6519C25.404 4.80928 25.4275 4.97142 25.4416 5.23133C25.4557 5.49123 25.4604 5.8489 25.4651 6.48557C25.4699 7.12224 25.4745 8.03786 25.4745 8.87959C25.4745 9.72133 25.4696 10.4891 25.4675 10.8826C25.4653 11.276 25.4653 12.0581 25.4604 12.3657C25.4555 12.6733 25.4463 12.8879 25.4087 13.174C25.3711 13.4602 25.3052 13.8178 25.2018 14.1206C25.0983 14.4234 24.9573 14.6714 24.7692 14.9671C24.5811 15.2628 24.3461 15.6061 24.0381 15.9185C23.7302 16.2308 23.3493 16.5122 23.0884 16.6934C22.8274 16.8746 22.6864 16.9557 22.496 17.0225C22.3056 17.0892 22.0658 17.1417 21.8636 17.2013C21.6614 17.2609 21.4969 17.3277 21.4122 17.3063C21.3275 17.285 21.3228 17.1752 21.3228 16.994C21.3228 16.8128 21.3277 16.56 21.304 16.3407C21.2805 16.1213 21.2288 15.9353 21.163 15.7589C21.0971 15.5824 21.0172 15.4155 20.9326 15.2748C20.848 15.1341 20.7587 15.0197 20.7634 14.9552C20.7682 14.8907 20.8668 14.8764 21.0502 14.8478C21.2335 14.8192 21.5015 14.7763 21.7695 14.6356C22.0374 14.4949 22.3054 14.2565 22.4958 14.0133C22.6862 13.7701 22.7991 13.5221 22.8673 13.2289C22.9355 12.9356 22.959 12.597 22.9637 12.039C22.9685 11.4811 22.9543 10.7037 22.9543 9.89777C22.9543 9.09181 22.9684 8.25726 22.9778 7.50375C22.9871 6.75024 22.9918 6.07783 23.0107 5.61998C23.0295 5.16215 23.0624 4.91892 23.0789 4.79724C23.0953 4.67557 23.0954 4.67559 23.126 4.62553Z" fill="#EBB700"/>
<path d="M32.6772 8.75321C32.5456 8.53869 32.2823 8.10949 32.0307 7.7065C31.7792 7.30352 31.5394 6.92678 31.2878 6.50472C31.0363 6.08266 30.773 5.61531 30.552 5.23617C30.331 4.85703 30.1524 4.56613 29.9267 4.3634C29.7011 4.16067 29.4284 4.04621 29.1674 4.01994C28.9064 3.99367 28.6572 4.05567 28.4785 4.14628C28.2997 4.23691 28.1916 4.35614 28.0835 4.51115C27.9753 4.66616 27.8672 4.85692 27.8272 5.03581C27.7873 5.21471 27.8155 5.38162 27.8602 5.53424C27.9049 5.68685 27.966 5.82514 28.18 6.21144C28.3939 6.59773 28.7606 7.232 29.1109 7.78282C29.4612 8.33364 29.795 8.80098 30.1571 9.37565C30.5191 9.95033 30.9093 10.6323 31.1585 11.0591C31.4077 11.4859 31.5159 11.6576 31.5817 11.741C31.6475 11.8244 31.671 11.8196 31.6733 12.0152C31.6755 12.2108 31.6568 12.6066 31.6404 13.2671C31.6239 13.9277 31.6098 14.8528 31.6075 15.4466C31.6053 16.0403 31.6145 16.3026 31.6593 16.5029C31.704 16.7032 31.7839 16.8415 31.9226 16.9798C32.0614 17.1181 32.2589 17.2564 32.4704 17.3302C32.682 17.4041 32.9077 17.4136 33.1286 17.354C33.3495 17.2944 33.5658 17.1657 33.7351 16.9988C33.9043 16.8319 34.0265 16.6268 34.0759 16.3169C34.1253 16.007 34.1018 15.5921 34.0854 15.1295C34.0689 14.6669 34.0595 14.1566 34.0595 13.7011C34.0595 13.2457 34.0688 12.8451 34.0736 12.5399C34.0784 12.2347 34.0784 12.0249 34.09 11.8984C34.1018 11.772 34.1253 11.7291 34.2922 11.4501C34.4591 11.1711 34.7694 10.6561 35.0516 10.1696C35.3337 9.68318 35.5876 9.22536 35.9308 8.62923C36.274 8.0331 36.7066 7.29869 37.0098 6.77648C37.3131 6.25428 37.4871 5.9443 37.5858 5.72973C37.6846 5.51516 37.7081 5.39593 37.6916 5.22905C37.6752 5.06216 37.6188 4.84756 37.5389 4.6711C37.459 4.49464 37.3556 4.35634 37.1934 4.24661C37.0312 4.13687 36.8102 4.0558 36.6386 4.01286C36.467 3.9699 36.3447 3.96514 36.1754 4.01997C36.0061 4.0748 35.7898 4.18925 35.5899 4.39435C35.3901 4.59946 35.2067 4.89513 34.9951 5.25758C34.7835 5.62003 34.5438 6.04923 34.264 6.53567C33.9842 7.02211 33.6645 7.56576 33.4341 7.95205C33.2037 8.33834 33.0627 8.56725 32.9922 8.71276C32.9217 8.85826 32.9217 8.92026 32.9029 8.94881C32.8842 8.97738 32.8466 8.97256 32.8277 8.97015C32.8088 8.96797 32.8088 8.96797 32.6772 8.75321Z" fill="#EBB700"/>
<path d="M16.5532 27.0289C16.559 26.6711 16.5127 25.9903 16.4953 24.5525C16.478 23.1148 16.4895 20.92 16.4953 19.4294C16.5011 17.9388 16.5011 17.1525 16.5589 16.6419C16.6168 16.1313 16.7325 15.8965 16.8656 15.6677C16.9987 15.4388 17.1491 15.2158 17.4211 15.0514C17.6931 14.8871 18.0865 14.7815 18.4047 14.7756C18.723 14.7698 18.966 14.8637 19.1916 15.0222C19.4173 15.1807 19.6255 15.4037 19.7991 15.6208C19.9727 15.838 20.1115 16.0492 20.1635 16.3485C20.2155 16.6478 20.1808 17.0351 20.175 17.9799C20.1692 18.9248 20.1924 20.4271 20.1924 21.3543C20.1924 22.2815 20.1692 22.6336 20.1924 22.7919C20.2156 22.9503 20.285 22.9151 20.4065 22.8094C20.528 22.7038 20.7015 22.5278 20.9041 22.3987C21.1066 22.2695 21.338 22.1874 21.6332 22.1639C21.9283 22.1405 22.287 22.1757 22.5531 22.2755C22.8193 22.3754 22.9928 22.5397 23.1722 22.7275C23.3515 22.9153 23.5367 23.1265 23.6408 23.2615C23.7449 23.3965 23.768 23.4552 23.8374 23.414C23.9068 23.3729 24.0225 23.232 24.2077 23.1264C24.3929 23.0207 24.6475 22.9503 24.8558 22.9151C25.0641 22.8799 25.2261 22.8799 25.4518 22.9386C25.6774 22.9973 25.9667 23.1147 26.1981 23.2556C26.4296 23.3965 26.6031 23.5608 26.7419 23.7721C26.8808 23.9833 26.9849 24.2415 27.0544 24.3941C27.1238 24.5467 27.1585 24.5936 27.2568 24.4997C27.3551 24.4057 27.5171 24.171 27.8354 24.1123C28.1537 24.0536 28.6281 24.171 28.9753 24.3588C29.3224 24.5467 29.5423 24.8049 29.6695 25.0279C29.7967 25.2509 29.8314 25.4387 29.8719 25.8788C29.9125 26.319 29.9587 27.0114 30.005 27.7039C30.0513 28.3964 30.0976 29.0889 30.1323 29.7989C30.167 30.509 30.1901 31.2367 30.2017 31.7942C30.2133 32.3517 30.2133 32.739 30.1554 33.2378C30.0975 33.7366 29.9818 34.3469 29.7967 34.9572C29.6115 35.5675 29.357 36.1778 28.9173 36.8351C28.4775 37.4923 27.8527 38.1965 27.413 38.5955C26.9733 38.9946 26.7188 39.0884 26.4179 39.2117C26.117 39.3349 25.7699 39.4875 25.3071 39.6225C24.8442 39.7575 24.2657 39.8748 23.6987 39.9394C23.1317 40.0039 22.5763 40.0157 21.9225 39.9805C21.2687 39.9453 20.5166 39.8631 19.7008 39.5404C18.885 39.2177 18.0056 38.6543 17.3517 38.1262C16.6979 37.598 16.2698 37.1051 15.7664 36.2013C15.263 35.2976 14.6845 33.9831 14.291 32.9444C13.8976 31.9057 13.6893 31.1428 13.4 29.9808C13.1107 28.8189 12.7404 27.2579 12.5553 26.2896C12.3701 25.3213 12.3701 24.9457 12.4627 24.6698C12.5552 24.3939 12.7404 24.2179 13.0066 24.1298C13.2728 24.0418 13.6199 24.0418 13.9787 24.1475C14.3374 24.2532 14.7077 24.4645 14.9969 24.7931C15.2862 25.1218 15.4945 25.5678 15.6565 25.9023C15.8185 26.2368 15.9342 26.4598 16.0557 26.7004C16.1772 26.941 16.3045 27.1992 16.397 27.3106C16.4896 27.422 16.5474 27.3868 16.5532 27.0289Z" fill="#FFCCAA"/>
</g>
<defs>
<clipPath id="clip0_197_865">
<rect width="42" height="40" fill="white"/>
</clipPath>
</defs>
</svg>
