<svg width="24" height="18" viewBox="0 0 24 18" fill="none" xmlns="http://www.w3.org/2000/svg">
<path d="M7.454 0.367184C7.01997 -0.121098 6.31511 -0.121098 5.88108 0.367184L0.325521 6.61719C-0.108507 7.10547 -0.108507 7.89844 0.325521 8.38672C0.759549 8.875 1.46441 8.875 1.89844 8.38672L5.55816 4.26562V16.25C5.55816 16.9414 6.05469 17.5 6.66927 17.5C7.28386 17.5 7.78039 16.9414 7.78039 16.25V4.26953L11.4401 8.38281C11.8741 8.87109 12.579 8.87109 13.013 8.38281C13.4471 7.89453 13.4471 7.10156 13.013 6.61328L7.45747 0.363277L7.454 0.367184Z" fill="#AAAAAA"/>
<path d="M16.0511 17.1328C16.4851 17.6211 17.19 17.6211 17.624 17.1328L23.1796 10.8828C23.6136 10.3945 23.6136 9.60156 23.1796 9.11328C22.7455 8.625 22.0407 8.625 21.6066 9.11328L17.9469 13.2344V1.25C17.9469 0.558594 17.4504 0 16.8358 0C16.2212 0 15.7247 0.558594 15.7247 1.25V13.2305L12.065 9.11719C11.6309 8.62891 10.9261 8.62891 10.4921 9.11719C10.058 9.60547 10.058 10.3984 10.4921 10.8867L16.0476 17.1367L16.0511 17.1328Z" fill="#EEEEEE"/>
</svg>
