<svg width="17" height="14" viewBox="0 0 17 14" fill="none" xmlns="http://www.w3.org/2000/svg">
<path d="M0 4.75615V4.57069C0 2.33567 1.67742 0.429344 3.96445 0.062276C5.44863 -0.180411 7.01914 0.294731 8.10156 1.3387L8.5 1.72176L8.86856 1.3387C9.98086 0.294731 11.5215 -0.180411 13.0355 0.062276C15.3232 0.429344 17 2.33567 17 4.57069V4.75615C17 6.08309 16.4289 7.35248 15.4195 8.25736L9.41973 13.6515C9.1707 13.8753 8.84199 14 8.5 14C8.15801 14 7.8293 13.8753 7.58027 13.6515L1.58014 8.25736C0.57209 7.35248 0 6.08309 0 4.75615Z" fill="#FF8989"/>
</svg>
