<svg width="34" height="26" viewBox="0 0 34 26" fill="none" xmlns="http://www.w3.org/2000/svg">
<path d="M16.6648 14.7201C17.2974 14.7201 17.8701 14.4341 18.5181 13.7706L31.626 0.797786C31.0686 0.255857 30.0291 0 28.5377 0H4.27886C3.01307 0 2.12464 0.241071 1.62707 0.738L14.8108 13.7713C15.4588 14.4186 16.047 14.7201 16.6648 14.7201ZM0.376714 23.5344L11.0289 13.0024L0.347143 2.4705C0.120857 2.89286 0 3.61607 0 4.65557V21.2895C0 22.3592 0.135643 23.1126 0.376714 23.5344ZM32.922 23.5196C33.1476 23.0824 33.2691 22.3438 33.2691 21.2889V4.65621C33.2691 3.64693 33.1631 2.92307 32.9368 2.51679L22.2994 13.0024L32.922 23.5196ZM4.73143 25.9592H28.989C30.2554 25.9592 31.1291 25.7181 31.626 25.236L20.7778 14.4791L19.7685 15.4884C18.7438 16.4829 17.7647 16.9348 16.6648 16.9348C15.5649 16.9348 14.5851 16.4829 13.5611 15.4884L12.5518 14.4791L1.71771 25.2219C2.28986 25.7188 3.29979 25.9592 4.73143 25.9592Z" fill="#D9D9D9"/>
</svg>
