<svg width="18" height="18" viewBox="0 0 18 18" fill="none" xmlns="http://www.w3.org/2000/svg">
<g clip-path="url(#clip0_245_1359)">
<g filter="url(#filter0_d_245_1359)">
<path d="M17.8537 3.77904L14.2208 0.148768C14.0237 -0.0483686 13.703 -0.0483686 13.5058 0.148768L13.0878 0.566751C12.8907 0.763922 12.8907 1.08463 13.0878 1.28176L13.256 1.45L9.11319 5.59547C8.11431 5.04869 6.83937 5.1959 5.99553 6.0397L4.50242 7.53281C4.30529 7.72995 4.30529 8.05065 4.50242 8.24782L6.33466 10.08L0.136144 16.9305C-0.0505116 17.1382 -0.0452198 17.4667 0.151917 17.6639L0.333281 17.8453C0.530452 18.0425 0.859024 18.053 1.06671 17.8611L7.91188 11.6704L9.72831 13.4869C9.92545 13.684 10.2462 13.684 10.4433 13.4869L11.9364 11.9938C12.7776 11.1526 12.9301 9.89082 12.3939 8.89188L16.5394 4.74641L16.7076 4.91465C16.9047 5.11178 17.2254 5.11178 17.4226 4.91465L17.8406 4.49666C18.0509 4.29953 18.0509 3.97882 17.8537 3.77904Z" fill="#D9D9D9"/>
</g>
</g>
<defs>
<filter id="filter0_d_245_1359" x="-4" y="0.000915527" width="26" height="25.9984" filterUnits="userSpaceOnUse" color-interpolation-filters="sRGB">
<feFlood flood-opacity="0" result="BackgroundImageFix"/>
<feColorMatrix in="SourceAlpha" type="matrix" values="0 0 0 0 0 0 0 0 0 0 0 0 0 0 0 0 0 0 127 0" result="hardAlpha"/>
<feOffset dy="4"/>
<feGaussianBlur stdDeviation="2"/>
<feComposite in2="hardAlpha" operator="out"/>
<feColorMatrix type="matrix" values="0 0 0 0 0 0 0 0 0 0 0 0 0 0 0 0 0 0 0.05 0"/>
<feBlend mode="normal" in2="BackgroundImageFix" result="effect1_dropShadow_245_1359"/>
<feBlend mode="normal" in="SourceGraphic" in2="effect1_dropShadow_245_1359" result="shape"/>
</filter>
<clipPath id="clip0_245_1359">
<rect width="18" height="18" fill="white"/>
</clipPath>
</defs>
</svg>
