<svg width="16" height="14" viewBox="0 0 16 14" fill="none" xmlns="http://www.w3.org/2000/svg">
<path d="M2.65433 0L2.15126 0.953387C3.76521 1.78659 5.36601 2.62528 6.26618 3.37114C7.16635 4.11701 7.45779 4.79016 7.66346 5.25677C7.76629 5.49008 7.83162 5.64415 7.90753 5.78516C7.94156 5.84838 7.9846 5.91355 8.03325 5.97555C7.99401 5.99454 7.95619 6.0089 7.9162 6.0307C7.52188 6.24572 7.13371 6.56184 6.83296 6.82482C6.53222 7.08781 6.26434 7.36293 6.08068 7.7574C5.89702 8.15186 5.78901 8.63333 5.7794 9.1471C5.76978 9.66086 5.8637 10.1658 5.99869 10.6225C6.13369 11.0791 6.48158 11.7235 7.29832 12.0025C7.70668 12.142 8.17942 12.2154 8.59678 12.284C8.61587 12.2872 8.62984 12.2911 8.6489 12.2944C8.19885 12.6557 8.06621 12.884 7.65516 12.9185C7.23307 12.954 6.24089 12.7063 5.44941 12.4112C4.65793 12.116 4.04742 11.8108 3.5031 11.445C2.95878 11.0791 2.46694 10.6377 2.17773 10.313C1.88852 9.98825 1.78647 9.77988 1.62631 9.48591C1.46616 9.19194 1.32612 8.94635 1.2429 8.63448C1.15967 8.32262 1.12012 7.86335 1.0844 7.38266L0 7.46145C0.0357168 7.94214 0.0676021 8.44426 0.191611 8.90894C0.315617 9.37362 0.518575 9.71969 0.669183 9.99613C0.819793 10.2726 0.996259 10.6133 1.36188 11.0239C1.7275 11.4344 2.26675 11.9143 2.89205 12.3345C3.51735 12.7548 4.21486 13.1001 5.0659 13.4175C5.91694 13.7348 6.9017 14.0613 7.74729 13.9901C8.59287 13.919 9.02814 13.3687 9.35799 13.1089C9.52291 12.979 9.74521 12.8507 9.95255 12.6754C10.0562 12.5878 10.1987 12.5049 10.2625 12.2135C10.2944 12.0678 10.2593 11.8623 10.17 11.7295C10.0806 11.5968 9.97437 11.5305 9.88254 11.4841C9.51523 11.2986 9.1905 11.2914 8.77511 11.2231C8.35971 11.1548 7.91278 11.0746 7.65327 10.986C7.13425 10.8086 7.15391 10.6983 7.04227 10.3207C6.93064 9.94304 6.85959 9.53431 6.86647 9.167C6.87334 8.7997 6.96325 8.43279 7.06826 8.20723C7.17327 7.98169 7.28481 7.8652 7.55315 7.63055C7.8215 7.3959 8.19209 7.10836 8.4411 6.97258C8.69011 6.8368 8.85779 6.81317 8.96963 6.81082C9.02555 6.80964 9.06784 6.81432 9.11358 6.82137C9.15931 6.82842 9.18571 6.84764 9.33743 6.84765C9.4133 6.84766 9.52391 6.84481 9.66518 6.75548C9.80645 6.66614 9.92003 6.45427 9.92778 6.30861C9.94328 6.0173 9.84122 5.95596 9.78644 5.88093C9.67687 5.73084 9.5178 5.57848 9.27013 5.45929C9.03518 5.34622 8.8747 5.29405 8.87867 5.30329C8.87654 5.29844 8.87825 5.30022 8.86723 5.27974C8.83067 5.21183 8.76386 5.06226 8.66015 4.82698C8.45274 4.35641 8.03357 3.4326 6.96441 2.54671C5.89525 1.66083 4.26828 0.833199 2.65433 0ZM8.87145 6.47953C8.89252 6.49777 8.90614 6.5122 8.90495 6.51056C8.9044 6.50981 8.88767 6.50619 8.87145 6.47953ZM9.26155 11.8369C9.26078 11.8413 9.25611 11.8494 9.24618 11.8578C9.24516 11.8586 9.24162 11.8609 9.24056 11.8618C9.25313 11.8384 9.26275 11.83 9.26155 11.8369Z" fill="#EEEEEE"/>
<path d="M13.4675 7.01184C13.3803 7.01177 13.2905 7.01488 13.1984 7.02128C12.7074 7.05543 12.1743 7.17871 11.7549 7.29316C11.3354 7.40762 11.1055 7.49798 10.0886 7.54912C9.28023 7.58978 7.98435 7.59841 6.59667 7.60015L6.38638 7.6004L6.29327 7.7869C6.28514 7.80318 6.2761 7.82143 6.2666 7.84184C6.09776 8.20449 5.99312 8.6644 5.98402 9.15059C5.98069 9.32851 5.99089 9.50633 6.01118 9.68188L6.04463 9.97137L6.33912 9.97887C7.43859 10.0069 8.478 10.0608 9.20496 10.2166C10.1183 10.4123 10.6256 10.7886 11.3619 10.9967C12.0982 11.2047 12.9422 11.1886 13.7014 10.9484C14.0809 10.8284 14.4271 10.656 14.7028 10.474C14.9785 10.2921 15.1887 10.144 15.3005 9.86752C15.3564 9.7293 15.3419 9.52253 15.2484 9.39544C15.1549 9.26836 15.0401 9.21783 14.9369 9.18234C14.7304 9.11135 14.5187 9.10208 14.3149 9.10208C13.9072 9.10208 13.5935 9.14483 13.4194 9.09232C13.3323 9.06607 13.2448 9.01144 13.1914 8.95718C13.138 8.90291 13.1288 8.85649 13.1289 8.86208C13.129 8.86766 13.1306 8.83856 13.1804 8.78743C13.2302 8.7363 13.3189 8.67711 13.4134 8.639C13.6024 8.56276 13.8718 8.55224 14.152 8.49764C14.2921 8.47035 14.4224 8.43146 14.5444 8.36229C14.6664 8.29313 14.7887 8.18229 14.8453 8.02275C14.9587 7.70365 14.7547 7.36159 14.4315 7.19674C14.1689 7.0628 13.8451 7.01213 13.4675 7.01184H13.4675ZM13.4669 7.68216C13.7724 7.68239 14.0181 7.7401 14.1209 7.79252C14.1331 7.79874 14.1365 7.80175 14.1454 7.80686C14.1126 7.81832 14.071 7.83023 14.021 7.83997C13.8374 7.87573 13.5026 7.8791 13.1575 8.01832C12.9849 8.08793 12.8243 8.18687 12.6922 8.32253C12.5602 8.45819 12.4477 8.64455 12.4513 8.87256C12.4549 9.10056 12.5668 9.2835 12.7058 9.42472C12.8448 9.56593 13.0207 9.67288 13.2218 9.73351C13.6238 9.85475 13.9847 9.7724 14.3149 9.7724C14.3784 9.7724 14.4413 9.77627 14.5004 9.78148C14.4509 9.82553 14.3931 9.87258 14.3266 9.91645C14.1061 10.062 13.8075 10.2111 13.4949 10.31C12.8698 10.5077 12.1399 10.5194 11.5481 10.3521C10.9563 10.1849 10.3815 9.78279 9.34844 9.56145C8.60212 9.40154 7.66004 9.34728 6.66323 9.31746C6.66154 9.26556 6.66066 9.21393 6.66162 9.163C6.66772 8.83716 6.73274 8.51688 6.82247 8.26982C8.1248 8.26745 9.32957 8.25848 10.123 8.21857C11.1791 8.16546 11.5394 8.0473 11.9351 7.93934C12.3307 7.83139 12.8376 7.71835 13.246 7.68995C13.3226 7.68462 13.3965 7.6821 13.4669 7.68216Z" fill="#EEEEEE"/>
<path d="M0.71872 4.34399L0.314941 5.34251C1.0637 5.63876 1.8406 5.94692 2.78377 6.18377C3.72694 6.42063 4.81896 6.58487 5.83747 6.57803C6.85598 6.57118 7.7499 6.39078 8.60312 6.22056L8.38814 5.16631C7.53492 5.33654 6.7224 5.49659 5.83005 5.50259C4.9377 5.50859 3.91453 5.35815 3.05131 5.14138C2.18809 4.9246 1.46749 4.64024 0.71872 4.34399Z" fill="#EEEEEE"/>
</svg>
